<?xml version="1.0" encoding="utf-8"?>
<svg viewBox="0 0 500 500" xmlns="http://www.w3.org/2000/svg">
  <rect x="0.363" y="0.32" width="499.487" height="499.213" style="stroke: rgb(0, 0, 0); fill: rgb(18, 18, 18);"/>
  <path d="M 249.536 60.356 C 299.36 96.328 340.295 106.034 389.043 108.507 L 389.043 299.331 C 389.043 359.955 355.419 375.601 249.536 440.969 C 143.711 375.642 110.031 359.955 110.031 299.331 L 110.031 108.507 C 158.778 106.034 199.716 96.328 249.536 60.356 Z M 249.536 9.657 C 182.354 66.776 140.244 69.445 70.173 69.445 L 70.173 299.331 C 70.173 391.066 134.005 415.001 249.536 487.96 C 365.067 415.001 428.902 391.066 428.902 299.331 L 428.902 69.445 C 358.829 69.445 316.719 66.776 249.536 9.657 Z" style="fill: rgb(255, 255, 255);"/>
  <path d="M 239.197 310.511 L 202.386 310.511 L 202.386 163.265 L 239.197 163.265 L 239.197 310.511 Z M 300.549 163.265 L 263.738 163.265 L 263.738 310.511 L 300.549 310.511 L 300.549 163.265 Z" style="fill: rgb(252, 0, 126);"/>
  <path d="M 249.536 60.356 C 299.36 96.328 340.295 106.034 389.043 108.507 L 389.043 299.331 C 389.043 359.955 355.419 375.601 249.536 440.969 C 143.711 375.642 110.031 359.955 110.031 299.331 L 110.031 108.507 C 158.778 106.034 199.716 96.328 249.536 60.356 Z M 249.536 9.657 C 182.354 66.776 140.244 69.445 70.173 69.445 L 70.173 299.331 C 70.173 391.066 134.005 415.001 249.536 487.96 C 365.067 415.001 428.902 391.066 428.902 299.331 L 428.902 69.445 C 358.829 69.445 316.719 66.776 249.536 9.657 Z" style="fill: rgb(255, 255, 255);"/>
</svg>